<svg width="900" height="560" viewBox="0 0 900 560" fill="none" xmlns="http://www.w3.org/2000/svg">
  <rect width="900" height="560" rx="32" fill="#18202B"/>
  <rect x="70" y="74" width="760" height="412" rx="28" fill="#EFF3F8"/>
  <rect x="70" y="74" width="760" height="68" rx="28" fill="#FCFDFE"/>
  <circle cx="106" cy="108" r="9" fill="#1D241C" fill-opacity="0.18"/>
  <circle cx="132" cy="108" r="9" fill="#1D241C" fill-opacity="0.18"/>
  <circle cx="158" cy="108" r="9" fill="#1D241C" fill-opacity="0.18"/>
  <rect x="138" y="194" width="174" height="114" rx="26" stroke="#1F8F71" stroke-width="10"/>
  <path d="M184 388C252 320 322 316 394 376C448 422 512 438 586 424" stroke="#0E7FE6" stroke-width="10" stroke-linecap="round"/>
  <circle cx="626" cy="230" r="78" fill="#F0B429" fill-opacity="0.26"/>
  <path d="M370 224L612 170" stroke="#FF7A45" stroke-width="10" stroke-linecap="round"/>
  <path d="M612 170L580 154" stroke="#FF7A45" stroke-width="10" stroke-linecap="round"/>
  <path d="M612 170L588 198" stroke="#FF7A45" stroke-width="10" stroke-linecap="round"/>
  <rect x="648" y="332" width="114" height="80" rx="22" fill="#1D241C" fill-opacity="0.08"/>
  <rect x="136" y="448" width="628" height="16" rx="8" fill="#1D241C" fill-opacity="0.08"/>
</svg>